# xmcd
#
# Track frame offsets: 
#        150
#        25725
#        52520
#        79300
#        108000
#        125872
#        145402
#        170025
#        197022
#
# Disc length: 3137 seconds
#
# Revision: 11
# Processed by: cddbd v1.5.2PL0 Copyright (c) Steve Scherf et al.
# Submitted via: ExactAudioCopy v1.0b3
#
DISCID=750c3f09
DTITLE=Seal - Seal
DYEAR=1991
DGENRE=Soul
TTITLE0=The Beginning
TTITLE1=Deep Water
TTITLE2=Crazy
TTITLE3=Killer
TTITLE4=Whirlpool
TTITLE5=Future Love Paradise
TTITLE6=Wild
TTITLE7=Show Me
TTITLE8=Violet
EXTD=Label: ZTT Records Ltd\n9031-74557-2
EXTT0=
EXTT1=
EXTT2=
EXTT3=
EXTT4=
EXTT5=
EXTT6=
EXTT7=
EXTT8=
PLAYORDER=
